<svg width="2406" height="645" fill="none" xmlns="http://www.w3.org/2000/svg"><path fill-rule="evenodd" clip-rule="evenodd" d="M342.013 30.976c.165-2.691-45.242-19.67-61.013-23.835-6.984-1.844-13.01-5.244-18.669-5.938-10.072-1.235-18.4 2.532-24.76 13.46l-61.645 75.13c-49.955 60.883-112.1 136.616-112.1 136.616l17.642 9.744L.99 324.674l8.717 3.578-8.575 19.416 19.5 2.134.061 9.85 109.423-74.538 43.866-15.046 13.276 14.7-.041 24.263-21.063 8.6-9.354 16.571 21.884-14.907 39.587 4.686 30.827 9.665-14.6-12.8-29.5-11.56-.541-25.773 13.443-18.632 4.243-24.651s32.695-10.513 61.636-61.649a364.521 364.521 0 0025.538-57.08l-.183-29.55L295.8 67.406l-4.631-22.812 50.844-13.618z" fill="#fff"/><path fill-rule="evenodd" clip-rule="evenodd" d="M416.91 323.382H146.344v65.221h98.346v256.353h74.326V388.603h97.894v-65.221zm225.239 0v124.553H513.891V323.382h-74.326v321.574h74.326v-131.8h128.258v131.8h74.327V323.382h-74.327zM838.84 579.735v-68.391h126.9v-60.238h-126.9v-62.5h147.75v-65.224H764.51v321.574h226.15v-65.221H838.84z" fill="#7D22C5"/><path fill-rule="evenodd" clip-rule="evenodd" d="M1094.4 644.956V541.237h50.31l61.64 103.719h82.03l-70.7-119.571a97.671 97.671 0 0028.1-23.326 105.47 105.47 0 0018.12-32.157 112.218 112.218 0 006.35-37.819 103.874 103.874 0 00-7.93-39.4 119.702 119.702 0 00-21.98-35.1 106.624 106.624 0 00-33.31-24.911 95.383 95.383 0 00-41.92-9.285h-145.03v321.569h74.32zm0-256.353h65.72a27.865 27.865 0 0116.32 5.435 43.05 43.05 0 0112.91 15.173c3.47 6.496 5.2 14.12 5.21 22.872.01 8.752-1.5 16.452-4.53 23.1a41.728 41.728 0 01-11.56 15.626 24.882 24.882 0 01-16.08 5.661h-67.99v-87.867zm185.82 256.353h76.14l21.81-72.015h105.94l21.81 72.015h76.14l-110.59-321.574h-80.21l-111.04 321.574zm113.46-123.2l37.46-123.647 37.46 123.647h-74.92zm148.04-198.379l117.84 321.574h72.96l116.93-321.574h-78.4l-74.78 234.613-75.69-234.613h-78.86zm398.37 256.353v-68.386h126.9v-60.238h-126.9v-62.5h147.75v-65.224h-222.08v321.574h226.16v-65.221h-151.83v-.005zm405.17 65.221h60.73V323.382h-74.33v189.321l-149.1-189.321h-58.92v321.574h74.33V461.068l147.29 183.883z" fill="#fff"/></svg>